<?xml version="1.0" encoding="UTF-8" standalone="no"?>
<!DOCTYPE svg PUBLIC "-//W3C//DTD SVG 1.1//EN"
 "http://www.w3.org/Graphics/SVG/1.1/DTD/svg11.dtd">
<!-- Generated by graphviz version 16.1.0 (0)
 -->
<!-- Title: session_entries Pages: 1 -->
<svg width="932pt" height="1435pt"
 viewBox="0.00 0.00 932.00 1435.00" xmlns="http://www.w3.org/2000/svg" xmlns:xlink="http://www.w3.org/1999/xlink">
<g id="graph0" class="graph" transform="scale(1 1) rotate(0) translate(20.16 1415.02)">
<title>session_entries</title>
<polygon fill="#f8fafc" stroke="none" points="-20.16,20.16 -20.16,-1415.02 912.2,-1415.02 912.2,20.16 -20.16,20.16"/>
<text xml:space="preserve" text-anchor="middle" x="446.02" y="-1368.06" font-family="DejaVu Sans Bold" font-size="24.00">Session entries: explicit source, generated result, and installation</text>
<g id="clust1" class="cluster">
<title>cluster_sources</title>
<path fill="#ffffff" stroke="#93c5fd" d="M109.02,-1010.92C109.02,-1010.92 748.02,-1010.92 748.02,-1010.92 754.02,-1010.92 760.02,-1016.92 760.02,-1022.92 760.02,-1022.92 760.02,-1148.51 760.02,-1148.51 760.02,-1154.51 754.02,-1160.51 748.02,-1160.51 748.02,-1160.51 109.02,-1160.51 109.02,-1160.51 103.02,-1160.51 97.02,-1154.51 97.02,-1148.51 97.02,-1148.51 97.02,-1022.92 97.02,-1022.92 97.02,-1016.92 103.02,-1010.92 109.02,-1010.92"/>
<text xml:space="preserve" text-anchor="middle" x="428.52" y="-1133.71" font-family="DejaVu Sans Bold" font-size="24.00">The source is always explicit</text>
</g>
<!-- cli -->
<g id="node1" class="node">
<title>cli</title>
<ellipse fill="#dbeafe" stroke="#2563eb" cx="434.02" cy="-1330.78" rx="65.61" ry="22.34"/>
<text xml:space="preserve" text-anchor="middle" x="434.02" y="-1328.2" font-family="DejaVu Sans" font-size="11.00" fill="#0f172a">uxsm entry …</text>
</g>
<!-- mode -->
<g id="node2" class="node">
<title>mode</title>
<path fill="#eff6ff" stroke="#2563eb" d="M422.36,-1262.61C422.36,-1262.61 315.39,-1236.68 315.39,-1236.68 309.56,-1235.26 309.56,-1232.44 315.39,-1231.02 315.39,-1231.02 422.36,-1205.09 422.36,-1205.09 428.19,-1203.67 439.85,-1203.67 445.68,-1205.09 445.68,-1205.09 552.65,-1231.02 552.65,-1231.02 558.48,-1232.44 558.48,-1235.26 552.65,-1236.68 552.65,-1236.68 445.68,-1262.61 445.68,-1262.61 439.85,-1264.03 428.19,-1264.03 422.36,-1262.61"/>
<text xml:space="preserve" text-anchor="middle" x="434.02" y="-1231.27" font-family="DejaVu Sans" font-size="11.00" fill="#0f172a">Which output mode?</text>
</g>
<!-- cli&#45;&gt;mode -->
<g id="edge1" class="edge">
<title>cli&#45;&gt;mode</title>
<path fill="none" stroke="#64748b" d="M434.02,-1308.24C434.02,-1298.21 434.02,-1285.96 434.02,-1274.36"/>
<polygon fill="#64748b" stroke="#64748b" points="436.65,-1274.68 434.02,-1267.18 431.4,-1274.68 436.65,-1274.68"/>
</g>
<!-- wrapper -->
<g id="node3" class="node">
<title>wrapper</title>
<path fill="#eff6ff" stroke="#2563eb" d="M286.67,-1102.88C286.67,-1102.88 117.38,-1102.88 117.38,-1102.88 111.38,-1102.88 105.38,-1096.88 105.38,-1090.88 105.38,-1090.88 105.38,-1038.79 105.38,-1038.79 105.38,-1032.79 111.38,-1026.79 117.38,-1026.79 117.38,-1026.79 286.67,-1026.79 286.67,-1026.79 292.67,-1026.79 298.67,-1032.79 298.67,-1038.79 298.67,-1038.79 298.67,-1090.88 298.67,-1090.88 298.67,-1096.88 292.67,-1102.88 286.67,-1102.88"/>
<text xml:space="preserve" text-anchor="middle" x="202.02" y="-1084.51" font-family="DejaVu Sans" font-size="11.00" fill="#0f172a">Wrapper</text>
<text xml:space="preserve" text-anchor="middle" x="202.02" y="-1068.76" font-family="DejaVu Sans" font-size="11.00" fill="#0f172a">uxsm entry bspwm</text>
<text xml:space="preserve" text-anchor="middle" x="202.02" y="-1040.01" font-family="DejaVu Sans" font-size="11.00" fill="#0f172a">Source: installed bspwm.desktop</text>
</g>
<!-- mode&#45;&gt;wrapper -->
<g id="edge2" class="edge">
<title>mode&#45;&gt;wrapper</title>
<path fill="none" stroke="#64748b" d="M397.36,-1210.75C362.07,-1189.48 314.02,-1160.51 314.02,-1160.51 314.02,-1160.51 282.53,-1133.89 252.95,-1108.89"/>
<polygon fill="#64748b" stroke="#64748b" points="254.86,-1107.07 247.44,-1104.23 251.47,-1111.08 254.86,-1107.07"/>
<text xml:space="preserve" text-anchor="middle" x="363.08" y="-1172.71" font-family="DejaVu Sans" font-size="9.00" fill="#334155"> default </text>
</g>
<!-- direct -->
<g id="node4" class="node">
<title>direct</title>
<path fill="#eff6ff" stroke="#2563eb" d="M526.16,-1110.76C526.16,-1110.76 341.88,-1110.76 341.88,-1110.76 335.88,-1110.76 329.88,-1104.76 329.88,-1098.76 329.88,-1098.76 329.88,-1030.92 329.88,-1030.92 329.88,-1024.92 335.88,-1018.92 341.88,-1018.92 341.88,-1018.92 526.16,-1018.92 526.16,-1018.92 532.16,-1018.92 538.16,-1024.92 538.16,-1030.92 538.16,-1030.92 538.16,-1098.76 538.16,-1098.76 538.16,-1104.76 532.16,-1110.76 526.16,-1110.76"/>
<text xml:space="preserve" text-anchor="middle" x="434.02" y="-1092.39" font-family="DejaVu Sans" font-size="11.00" fill="#0f172a">Direct uxsm entry</text>
<text xml:space="preserve" text-anchor="middle" x="434.02" y="-1076.64" font-family="DejaVu Sans" font-size="11.00" fill="#0f172a">uxsm entry &#45;&#45;exec …</text>
<text xml:space="preserve" text-anchor="middle" x="434.02" y="-1047.89" font-family="DejaVu Sans" font-size="11.00" fill="#0f172a">Source: installed entry, &#45;&#45;from&#45;table,</text>
<text xml:space="preserve" text-anchor="middle" x="434.02" y="-1032.14" font-family="DejaVu Sans" font-size="11.00" fill="#0f172a">or an explicit command after &#45;&#45;</text>
</g>
<!-- mode&#45;&gt;direct -->
<g id="edge3" class="edge">
<title>mode&#45;&gt;direct</title>
<path fill="none" stroke="#64748b" d="M434.02,-1201.83C434.02,-1178.94 434.02,-1147.22 434.02,-1120.17"/>
<polygon fill="#64748b" stroke="#64748b" points="436.65,-1120.2 434.02,-1112.7 431.4,-1120.2 436.65,-1120.2"/>
<text xml:space="preserve" text-anchor="middle" x="449.02" y="-1172.71" font-family="DejaVu Sans" font-size="9.00" fill="#334155"> &#45;&#45;exec </text>
</g>
<!-- plain -->
<g id="node5" class="node">
<title>plain</title>
<path fill="#eff6ff" stroke="#2563eb" d="M740.41,-1110.76C740.41,-1110.76 581.62,-1110.76 581.62,-1110.76 575.62,-1110.76 569.62,-1104.76 569.62,-1098.76 569.62,-1098.76 569.62,-1030.92 569.62,-1030.92 569.62,-1024.92 575.62,-1018.92 581.62,-1018.92 581.62,-1018.92 740.41,-1018.92 740.41,-1018.92 746.41,-1018.92 752.41,-1024.92 752.41,-1030.92 752.41,-1030.92 752.41,-1098.76 752.41,-1098.76 752.41,-1104.76 746.41,-1110.76 740.41,-1110.76"/>
<text xml:space="preserve" text-anchor="middle" x="661.02" y="-1092.39" font-family="DejaVu Sans" font-size="11.00" fill="#0f172a">Plain entry without uxsm</text>
<text xml:space="preserve" text-anchor="middle" x="661.02" y="-1076.64" font-family="DejaVu Sans" font-size="11.00" fill="#0f172a">uxsm entry &#45;&#45;plain …</text>
<text xml:space="preserve" text-anchor="middle" x="661.02" y="-1047.89" font-family="DejaVu Sans" font-size="11.00" fill="#0f172a">Source: &#45;&#45;from&#45;table</text>
<text xml:space="preserve" text-anchor="middle" x="661.02" y="-1032.14" font-family="DejaVu Sans" font-size="11.00" fill="#0f172a">or an explicit command after &#45;&#45;</text>
</g>
<!-- mode&#45;&gt;plain -->
<g id="edge4" class="edge">
<title>mode&#45;&gt;plain</title>
<path fill="none" stroke="#64748b" d="M470.68,-1210.75C505.97,-1189.48 554.02,-1160.51 554.02,-1160.51 554.02,-1160.51 578.01,-1139.28 603.28,-1116.93"/>
<polygon fill="#64748b" stroke="#64748b" points="604.7,-1119.17 608.58,-1112.24 601.22,-1115.24 604.7,-1119.17"/>
<text xml:space="preserve" text-anchor="middle" x="554.53" y="-1172.71" font-family="DejaVu Sans" font-size="9.00" fill="#334155"> &#45;&#45;plain </text>
</g>
<!-- validate -->
<g id="node6" class="node">
<title>validate</title>
<path fill="#eff6ff" stroke="#2563eb" d="M565.54,-975.92C565.54,-975.92 302.5,-975.92 302.5,-975.92 296.5,-975.92 290.5,-969.92 290.5,-963.92 290.5,-963.92 290.5,-896.08 290.5,-896.08 290.5,-890.08 296.5,-884.08 302.5,-884.08 302.5,-884.08 565.54,-884.08 565.54,-884.08 571.54,-884.08 577.54,-890.08 577.54,-896.08 577.54,-896.08 577.54,-963.92 577.54,-963.92 577.54,-969.92 571.54,-975.92 565.54,-975.92"/>
<text xml:space="preserve" text-anchor="middle" x="434.02" y="-957.55" font-family="DejaVu Sans" font-size="11.00" fill="#0f172a">Validate source and mode</text>
<text xml:space="preserve" text-anchor="middle" x="434.02" y="-928.8" font-family="DejaVu Sans" font-size="11.00" fill="#0f172a">Reject recursion, sessions already managed by</text>
<text xml:space="preserve" text-anchor="middle" x="434.02" y="-913.05" font-family="DejaVu Sans" font-size="11.00" fill="#0f172a">systemd &#45;&#45;user, meta&#45;sessions, missing commands,</text>
<text xml:space="preserve" text-anchor="middle" x="434.02" y="-897.3" font-family="DejaVu Sans" font-size="11.00" fill="#0f172a">and contradictory source options</text>
</g>
<!-- wrapper&#45;&gt;validate -->
<g id="edge5" class="edge">
<title>wrapper&#45;&gt;validate</title>
<path fill="none" stroke="#64748b" d="M267.57,-1026.3C292.33,-1012.13 320.89,-995.77 347.29,-980.66"/>
<polygon fill="#64748b" stroke="#64748b" points="348.52,-982.98 353.73,-976.97 345.92,-978.42 348.52,-982.98"/>
</g>
<!-- direct&#45;&gt;validate -->
<g id="edge6" class="edge">
<title>direct&#45;&gt;validate</title>
<path fill="none" stroke="#64748b" d="M434.02,-1018.49C434.02,-1007.7 434.02,-996.08 434.02,-984.94"/>
<polygon fill="#64748b" stroke="#64748b" points="436.65,-985.15 434.02,-977.65 431.4,-985.15 436.65,-985.15"/>
</g>
<!-- plain&#45;&gt;validate -->
<g id="edge7" class="edge">
<title>plain&#45;&gt;validate</title>
<path fill="none" stroke="#64748b" d="M583.53,-1018.49C562.83,-1006.38 540.34,-993.22 519.25,-980.87"/>
<polygon fill="#64748b" stroke="#64748b" points="520.65,-978.65 512.85,-977.13 518,-983.18 520.65,-978.65"/>
</g>
<!-- enrich -->
<g id="node7" class="node">
<title>enrich</title>
<path fill="#eff6ff" stroke="#2563eb" d="M540.41,-841.08C540.41,-841.08 327.62,-841.08 327.62,-841.08 321.62,-841.08 315.62,-835.08 315.62,-829.08 315.62,-829.08 315.62,-761.24 315.62,-761.24 315.62,-755.24 321.62,-749.24 327.62,-749.24 327.62,-749.24 540.41,-749.24 540.41,-749.24 546.41,-749.24 552.41,-755.24 552.41,-761.24 552.41,-761.24 552.41,-829.08 552.41,-829.08 552.41,-835.08 546.41,-841.08 540.41,-841.08"/>
<text xml:space="preserve" text-anchor="middle" x="434.02" y="-822.71" font-family="DejaVu Sans" font-size="11.00" fill="#0f172a">Resolve metadata</text>
<text xml:space="preserve" text-anchor="middle" x="434.02" y="-793.96" font-family="DejaVu Sans" font-size="11.00" fill="#0f172a">1. Source values</text>
<text xml:space="preserve" text-anchor="middle" x="434.02" y="-778.21" font-family="DejaVu Sans" font-size="11.00" fill="#0f172a">2. Fill gaps from the known desktop table</text>
<text xml:space="preserve" text-anchor="middle" x="434.02" y="-762.46" font-family="DejaVu Sans" font-size="11.00" fill="#0f172a">3. Apply &#45;N, &#45;C, &#45;D, and &#45;e overrides</text>
</g>
<!-- validate&#45;&gt;enrich -->
<g id="edge8" class="edge">
<title>validate&#45;&gt;enrich</title>
<path fill="none" stroke="#64748b" d="M434.02,-883.65C434.02,-872.86 434.02,-861.24 434.02,-850.1"/>
<polygon fill="#64748b" stroke="#64748b" points="436.65,-850.31 434.02,-842.81 431.4,-850.31 436.65,-850.31"/>
</g>
<!-- autostart -->
<g id="node9" class="node">
<title>autostart</title>
<polygon fill="#f1f5f9" stroke="#64748b" points="886.04,-818.83 614,-818.83 614,-771.49 892.04,-771.49 892.04,-812.83 886.04,-818.83"/>
<polyline fill="none" stroke="#64748b" points="886.04,-818.83 886.04,-812.83"/>
<polyline fill="none" stroke="#64748b" points="892.04,-812.83 886.04,-812.83"/>
<text xml:space="preserve" text-anchor="middle" x="753.02" y="-800.46" font-family="DejaVu Sans" font-size="11.00" fill="#0f172a">If the known desktop owns XDG autostart,</text>
<text xml:space="preserve" text-anchor="middle" x="753.02" y="-784.71" font-family="DejaVu Sans" font-size="11.00" fill="#0f172a">add &#45;&#45;no&#45;autostart to generated uxsm commands</text>
</g>
<!-- enrich&#45;&gt;autostart -->
<g id="edge10" class="edge">
<title>enrich&#45;&gt;autostart</title>
<path fill="none" stroke="#64748b" stroke-dasharray="5,2" d="M552.55,-795.16C567.39,-795.16 593.03,-795.16 613.81,-795.16"/>
</g>
<!-- out_wrapper -->
<g id="node10" class="node">
<title>out_wrapper</title>
<polygon fill="#dcfce7" stroke="#15803d" points="290.04,-694.49 0,-694.49 0,-601.15 296.04,-601.15 296.04,-688.49 290.04,-694.49"/>
<polyline fill="none" stroke="#15803d" points="290.04,-694.49 290.04,-688.49"/>
<polyline fill="none" stroke="#15803d" points="296.04,-688.49 290.04,-688.49"/>
<text xml:space="preserve" text-anchor="middle" x="148.02" y="-676.12" font-family="DejaVu Sans" font-size="11.00" fill="#14532d">bspwm&#45;uxsm.desktop</text>
<text xml:space="preserve" text-anchor="middle" x="148.02" y="-660.37" font-family="DejaVu Sans" font-size="11.00" fill="#14532d">Exec=uxsm start bspwm.desktop</text>
<text xml:space="preserve" text-anchor="middle" x="148.02" y="-631.62" font-family="DejaVu Sans" font-size="11.00" fill="#14532d">Login path</text>
<text xml:space="preserve" text-anchor="middle" x="148.02" y="-615.87" font-family="DejaVu Sans" font-size="11.00" fill="#14532d">display manager → uxsm → original entry → bspwm</text>
</g>
<!-- enrich&#45;&gt;out_wrapper -->
<g id="edge11" class="edge">
<title>enrich&#45;&gt;out_wrapper</title>
<path fill="none" stroke="#64748b" d="M344.7,-748.77C313.58,-732.95 278.48,-715.12 246.65,-698.94"/>
<polygon fill="#64748b" stroke="#64748b" points="247.85,-696.61 239.98,-695.55 245.47,-701.29 247.85,-696.61"/>
<text xml:space="preserve" text-anchor="middle" x="319.47" y="-719.69" font-family="DejaVu Sans" font-size="9.00" fill="#334155"> wrapper </text>
</g>
<!-- out_direct -->
<g id="node11" class="node">
<title>out_direct</title>
<polygon fill="#dcfce7" stroke="#15803d" points="535.16,-694.49 326.88,-694.49 326.88,-601.15 541.16,-601.15 541.16,-688.49 535.16,-694.49"/>
<polyline fill="none" stroke="#15803d" points="535.16,-694.49 535.16,-688.49"/>
<polyline fill="none" stroke="#15803d" points="541.16,-688.49 535.16,-688.49"/>
<text xml:space="preserve" text-anchor="middle" x="434.02" y="-676.12" font-family="DejaVu Sans" font-size="11.00" fill="#14532d">bspwm&#45;uxsm.desktop</text>
<text xml:space="preserve" text-anchor="middle" x="434.02" y="-660.37" font-family="DejaVu Sans" font-size="11.00" fill="#14532d">Exec=uxsm start &#45;D bspwm &#45;&#45; bspwm</text>
<text xml:space="preserve" text-anchor="middle" x="434.02" y="-631.62" font-family="DejaVu Sans" font-size="11.00" fill="#14532d">Login path</text>
<text xml:space="preserve" text-anchor="middle" x="434.02" y="-615.87" font-family="DejaVu Sans" font-size="11.00" fill="#14532d">display manager → uxsm → bspwm</text>
</g>
<!-- enrich&#45;&gt;out_direct -->
<g id="edge12" class="edge">
<title>enrich&#45;&gt;out_direct</title>
<path fill="none" stroke="#64748b" d="M434.02,-748.97C434.02,-734.62 434.02,-718.59 434.02,-703.64"/>
<polygon fill="#64748b" stroke="#64748b" points="436.65,-704 434.02,-696.5 431.4,-704 436.65,-704"/>
<text xml:space="preserve" text-anchor="middle" x="448.27" y="-719.69" font-family="DejaVu Sans" font-size="9.00" fill="#334155"> direct </text>
</g>
<!-- out_plain -->
<g id="node12" class="node">
<title>out_plain</title>
<polygon fill="#dcfce7" stroke="#15803d" points="730.04,-694.49 572,-694.49 572,-601.15 736.04,-601.15 736.04,-688.49 730.04,-694.49"/>
<polyline fill="none" stroke="#15803d" points="730.04,-694.49 730.04,-688.49"/>
<polyline fill="none" stroke="#15803d" points="736.04,-688.49 730.04,-688.49"/>
<text xml:space="preserve" text-anchor="middle" x="654.02" y="-676.12" font-family="DejaVu Sans" font-size="11.00" fill="#14532d">bspwm.desktop</text>
<text xml:space="preserve" text-anchor="middle" x="654.02" y="-660.37" font-family="DejaVu Sans" font-size="11.00" fill="#14532d">Exec=bspwm</text>
<text xml:space="preserve" text-anchor="middle" x="654.02" y="-631.62" font-family="DejaVu Sans" font-size="11.00" fill="#14532d">Login path</text>
<text xml:space="preserve" text-anchor="middle" x="654.02" y="-615.87" font-family="DejaVu Sans" font-size="11.00" fill="#14532d">display manager → bspwm</text>
</g>
<!-- enrich&#45;&gt;out_plain -->
<g id="edge13" class="edge">
<title>enrich&#45;&gt;out_plain</title>
<path fill="none" stroke="#64748b" d="M502.72,-748.77C526.26,-733.22 552.75,-715.72 576.91,-699.76"/>
<polygon fill="#64748b" stroke="#64748b" points="578.25,-702.02 583.06,-695.7 575.35,-697.64 578.25,-702.02"/>
<text xml:space="preserve" text-anchor="middle" x="562.99" y="-719.69" font-family="DejaVu Sans" font-size="9.00" fill="#334155"> plain </text>
</g>
<!-- no_table -->
<g id="node8" class="node">
<title>no_table</title>
<polygon fill="#f1f5f9" stroke="#64748b" points="248.04,-818.83 42,-818.83 42,-771.49 254.04,-771.49 254.04,-812.83 248.04,-818.83"/>
<polyline fill="none" stroke="#64748b" points="248.04,-818.83 248.04,-812.83"/>
<polyline fill="none" stroke="#64748b" points="254.04,-812.83 248.04,-812.83"/>
<text xml:space="preserve" text-anchor="middle" x="148.02" y="-800.46" font-family="DejaVu Sans" font-size="11.00" fill="#0f172a">&#45;&#45;no&#45;table disables only gap filling</text>
<text xml:space="preserve" text-anchor="middle" x="148.02" y="-784.71" font-family="DejaVu Sans" font-size="11.00" fill="#0f172a">It never changes the declared source</text>
</g>
<!-- no_table&#45;&gt;enrich -->
<g id="edge9" class="edge">
<title>no_table&#45;&gt;enrich</title>
<path fill="none" stroke="#64748b" stroke-dasharray="5,2" d="M254.29,-795.16C269.06,-795.16 295.77,-795.16 315.19,-795.16"/>
</g>
<!-- destination -->
<g id="node13" class="node">
<title>destination</title>
<path fill="#eff6ff" stroke="#2563eb" d="M539.66,-558.15C539.66,-558.15 328.38,-558.15 328.38,-558.15 322.38,-558.15 316.38,-552.15 316.38,-546.15 316.38,-546.15 316.38,-522.81 316.38,-522.81 316.38,-516.81 322.38,-510.81 328.38,-510.81 328.38,-510.81 539.66,-510.81 539.66,-510.81 545.66,-510.81 551.66,-516.81 551.66,-522.81 551.66,-522.81 551.66,-546.15 551.66,-546.15 551.66,-552.15 545.66,-558.15 539.66,-558.15"/>
<text xml:space="preserve" text-anchor="middle" x="434.02" y="-539.78" font-family="DejaVu Sans" font-size="11.00" fill="#0f172a">Check the destination</text>
<text xml:space="preserve" text-anchor="middle" x="434.02" y="-524.03" font-family="DejaVu Sans" font-size="11.00" fill="#0f172a">Without &#45;f, reject overwrite or shadowing</text>
</g>
<!-- out_wrapper&#45;&gt;destination -->
<g id="edge14" class="edge">
<title>out_wrapper&#45;&gt;destination</title>
<path fill="none" stroke="#64748b" d="M266.41,-600.73C300.54,-587.44 336.61,-573.4 366.5,-561.76"/>
<polygon fill="#64748b" stroke="#64748b" points="367.31,-564.26 373.35,-559.1 365.41,-559.37 367.31,-564.26"/>
</g>
<!-- out_direct&#45;&gt;destination -->
<g id="edge15" class="edge">
<title>out_direct&#45;&gt;destination</title>
<path fill="none" stroke="#64748b" d="M434.02,-600.89C434.02,-589.59 434.02,-577.73 434.02,-567.26"/>
<polygon fill="#64748b" stroke="#64748b" points="436.65,-567.48 434.02,-559.98 431.4,-567.48 436.65,-567.48"/>
</g>
<!-- out_plain&#45;&gt;destination -->
<g id="edge16" class="edge">
<title>out_plain&#45;&gt;destination</title>
<path fill="none" stroke="#64748b" d="M571.79,-605.2C543.7,-590.99 513.04,-575.47 487.78,-562.69"/>
<polygon fill="#64748b" stroke="#64748b" points="489.01,-560.37 481.13,-559.32 486.64,-565.05 489.01,-560.37"/>
</g>
<!-- preview -->
<g id="node14" class="node">
<title>preview</title>
<path fill="#eff6ff" stroke="#2563eb" d="M491.91,-456.06C491.91,-456.06 318.12,-456.06 318.12,-456.06 312.12,-456.06 306.12,-450.06 306.12,-444.06 306.12,-444.06 306.12,-404.97 306.12,-404.97 306.12,-398.97 312.12,-392.97 318.12,-392.97 318.12,-392.97 491.91,-392.97 491.91,-392.97 497.91,-392.97 503.91,-398.97 503.91,-404.97 503.91,-404.97 503.91,-444.06 503.91,-444.06 503.91,-450.06 497.91,-456.06 491.91,-456.06"/>
<text xml:space="preserve" text-anchor="middle" x="405.02" y="-437.69" font-family="DejaVu Sans" font-size="11.00" fill="#0f172a">Without &#45;i</text>
<text xml:space="preserve" text-anchor="middle" x="405.02" y="-421.94" font-family="DejaVu Sans" font-size="11.00" fill="#0f172a">Print the destination and contents</text>
<text xml:space="preserve" text-anchor="middle" x="405.02" y="-406.19" font-family="DejaVu Sans" font-size="11.00" fill="#0f172a">Write nothing</text>
</g>
<!-- destination&#45;&gt;preview -->
<g id="edge17" class="edge">
<title>destination&#45;&gt;preview</title>
<path fill="none" stroke="#64748b" d="M427.8,-510.32C424.23,-497.04 419.66,-480.02 415.55,-464.71"/>
<polygon fill="#64748b" stroke="#64748b" points="418.2,-464.45 413.72,-457.89 413.13,-465.81 418.2,-464.45"/>
<text xml:space="preserve" text-anchor="middle" x="433.37" y="-481.26" font-family="DejaVu Sans" font-size="9.00" fill="#334155"> no &#45;i </text>
</g>
<!-- write -->
<g id="node15" class="node">
<title>write</title>
<polygon fill="#fef3c7" stroke="#ca8a04" points="691.29,-456.06 688.29,-460.06 667.29,-460.06 664.29,-456.06 534.75,-456.06 534.75,-392.97 691.29,-392.97 691.29,-456.06"/>
<text xml:space="preserve" text-anchor="middle" x="613.02" y="-437.69" font-family="DejaVu Sans" font-size="11.00" fill="#0f172a">With &#45;i</text>
<text xml:space="preserve" text-anchor="middle" x="613.02" y="-421.94" font-family="DejaVu Sans" font-size="11.00" fill="#0f172a">/usr/local/share/xsessions</text>
<text xml:space="preserve" text-anchor="middle" x="613.02" y="-406.19" font-family="DejaVu Sans" font-size="11.00" fill="#0f172a">Root privileges required</text>
</g>
<!-- destination&#45;&gt;write -->
<g id="edge18" class="edge">
<title>destination&#45;&gt;write</title>
<path fill="none" stroke="#64748b" d="M472.42,-510.32C496.27,-495.93 527.4,-477.16 554.31,-460.93"/>
<polygon fill="#64748b" stroke="#64748b" points="555.41,-463.33 560.48,-457.21 552.7,-458.83 555.41,-463.33"/>
<text xml:space="preserve" text-anchor="middle" x="528.39" y="-481.26" font-family="DejaVu Sans" font-size="9.00" fill="#334155"> &#45;i </text>
</g>
<!-- dm -->
<g id="node16" class="node">
<title>dm</title>
<path fill="#eff6ff" stroke="#2563eb" d="M601.4,-346.97C601.4,-346.97 441.1,-305.63 441.1,-305.63 435.29,-304.13 435.29,-301.13 441.1,-299.63 441.1,-299.63 601.4,-258.29 601.4,-258.29 607.21,-256.79 618.83,-256.79 624.64,-258.29 624.64,-258.29 784.94,-299.63 784.94,-299.63 790.75,-301.13 790.75,-304.13 784.94,-305.63 784.94,-305.63 624.64,-346.97 624.64,-346.97 618.83,-348.47 607.21,-348.47 601.4,-346.97"/>
<text xml:space="preserve" text-anchor="middle" x="613.02" y="-307.93" font-family="DejaVu Sans" font-size="11.00" fill="#0f172a">Does the display manager read</text>
<text xml:space="preserve" text-anchor="middle" x="613.02" y="-292.18" font-family="DejaVu Sans" font-size="11.00" fill="#0f172a">the local session directories?</text>
</g>
<!-- write&#45;&gt;dm -->
<g id="edge19" class="edge">
<title>write&#45;&gt;dm</title>
<path fill="none" stroke="#64748b" d="M613.02,-392.64C613.02,-382.36 613.02,-370.57 613.02,-359.01"/>
<polygon fill="#64748b" stroke="#64748b" points="615.65,-359.25 613.02,-351.75 610.4,-359.25 615.65,-359.25"/>
</g>
<!-- visible -->
<g id="node17" class="node">
<title>visible</title>
<ellipse fill="#bbf7d0" stroke="#15803d" cx="613.02" cy="-33.47" rx="153.65" ry="33.47"/>
<text xml:space="preserve" text-anchor="middle" x="613.02" y="-38.77" font-family="DejaVu Sans" font-size="11.00" fill="#14532d">Restart the display manager</text>
<text xml:space="preserve" text-anchor="middle" x="613.02" y="-23.02" font-family="DejaVu Sans" font-size="11.00" fill="#14532d">The entry appears on the login screen</text>
</g>
<!-- dm&#45;&gt;visible -->
<g id="edge20" class="edge">
<title>dm&#45;&gt;visible</title>
<path fill="none" stroke="#64748b" d="M608.18,-256.11C605.33,-229.28 602.27,-200.54 602.27,-200.54 602.27,-200.54 602.27,-121.7 602.27,-121.7 602.27,-121.7 605.15,-98.36 607.92,-75.83"/>
<polygon fill="#64748b" stroke="#64748b" points="610.52,-76.22 608.83,-68.46 605.31,-75.58 610.52,-76.22"/>
<text xml:space="preserve" text-anchor="middle" x="611.64" y="-158.94" font-family="DejaVu Sans" font-size="9.00" fill="#334155"> yes </text>
</g>
<!-- tools -->
<g id="node18" class="node">
<title>tools</title>
<path fill="#fff7ed" stroke="#ea580c" d="M867.04,-200.54C867.04,-200.54 649,-200.54 649,-200.54 643,-200.54 637,-194.54 637,-188.54 637,-188.54 637,-133.7 637,-133.7 637,-127.7 643,-121.7 649,-121.7 649,-121.7 867.04,-121.7 867.04,-121.7 873.04,-121.7 879.04,-127.7 879.04,-133.7 879.04,-133.7 879.04,-188.54 879.04,-188.54 879.04,-194.54 873.04,-200.54 867.04,-200.54"/>
<text xml:space="preserve" text-anchor="middle" x="758.02" y="-182.17" font-family="DejaVu Sans" font-size="11.00" fill="#7c2d12">uxsm check reports the problem</text>
<text xml:space="preserve" text-anchor="middle" x="758.02" y="-166.42" font-family="DejaVu Sans" font-size="11.00" fill="#7c2d12">uxsm setup sessions&#45;dir explains the fix</text>
<text xml:space="preserve" text-anchor="middle" x="758.02" y="-150.67" font-family="DejaVu Sans" font-size="11.00" fill="#7c2d12">and applies it with &#45;i for LightDM or SDDM</text>
<text xml:space="preserve" text-anchor="middle" x="758.02" y="-134.92" font-family="DejaVu Sans" font-size="11.00" fill="#7c2d12">(GDM remains explanatory only)</text>
</g>
<!-- dm&#45;&gt;tools -->
<g id="edge21" class="edge">
<title>dm&#45;&gt;tools</title>
<path fill="none" stroke="#64748b" d="M651.12,-264.97C669.51,-247.28 691.75,-225.88 711.17,-207.19"/>
<polygon fill="#64748b" stroke="#64748b" points="712.97,-209.11 716.55,-202.02 709.33,-205.33 712.97,-209.11"/>
<text xml:space="preserve" text-anchor="middle" x="701.7" y="-225.74" font-family="DejaVu Sans" font-size="9.00" fill="#334155"> no </text>
</g>
<!-- tools&#45;&gt;visible -->
<g id="edge22" class="edge">
<title>tools&#45;&gt;visible</title>
<path fill="none" stroke="#64748b" d="M713.33,-121.4C695.1,-105.6 674.1,-87.4 656.05,-71.76"/>
<polygon fill="#64748b" stroke="#64748b" points="658.07,-70.04 650.68,-67.11 654.63,-74 658.07,-70.04"/>
<text xml:space="preserve" text-anchor="middle" x="745.89" y="-92.15" font-family="DejaVu Sans" font-size="9.00" fill="#334155"> after configuration + restart </text>
</g>
</g>
</svg>
