<?xml version="1.0" encoding="UTF-8" standalone="no"?>
<!DOCTYPE svg PUBLIC "-//W3C//DTD SVG 1.1//EN"
 "http://www.w3.org/Graphics/SVG/1.1/DTD/svg11.dtd">
<!-- Generated by graphviz version 16.1.0 (0)
 -->
<!-- Title: systemd_lifecycle Pages: 1 -->
<svg width="1444pt" height="1033pt"
 viewBox="0.00 0.00 1444.00 1033.00" xmlns="http://www.w3.org/2000/svg" xmlns:xlink="http://www.w3.org/1999/xlink">
<g id="graph0" class="graph" transform="scale(1 1) rotate(0) translate(21.6 1011.13)">
<title>systemd_lifecycle</title>
<polygon fill="#f8fafc" stroke="none" points="-21.6,21.6 -21.6,-1011.13 1422.6,-1011.13 1422.6,21.6 -21.6,21.6"/>
<text xml:space="preserve" text-anchor="middle" x="700.5" y="-962.73" font-family="DejaVu Sans Bold" font-size="24.00">Qué mantiene systemd durante la sesión y cómo la cierra</text>
<g id="clust1" class="cluster">
<title>cluster_active</title>
<path fill="#ffffff" stroke="#93c5fd" d="M20,-354.13C20,-354.13 693,-354.13 693,-354.13 699,-354.13 705,-360.13 705,-366.13 705,-366.13 705,-823.08 705,-823.08 705,-829.08 699,-835.08 693,-835.08 693,-835.08 20,-835.08 20,-835.08 14,-835.08 8,-829.08 8,-823.08 8,-823.08 8,-366.13 8,-366.13 8,-360.13 14,-354.13 20,-354.13"/>
<text xml:space="preserve" text-anchor="middle" x="356.5" y="-808.28" font-family="DejaVu Sans Bold" font-size="24.00">Mientras la sesión está activa</text>
</g>
<g id="clust2" class="cluster">
<title>cluster_shutdown</title>
<path fill="#ffffff" stroke="#fca5a5" d="M739,-8C739,-8 1381,-8 1381,-8 1387,-8 1393,-14 1393,-20 1393,-20 1393,-610.24 1393,-610.24 1393,-616.24 1387,-622.24 1381,-622.24 1381,-622.24 739,-622.24 739,-622.24 733,-622.24 727,-616.24 727,-610.24 727,-610.24 727,-20 727,-20 727,-14 733,-8 739,-8"/>
<text xml:space="preserve" text-anchor="middle" x="1060" y="-595.44" font-family="DejaVu Sans Bold" font-size="24.00">Cualquier forma de salir converge en el mismo cierre</text>
</g>
<!-- login -->
<g id="node1" class="node">
<title>login</title>
<ellipse fill="#dbeafe" stroke="#2563eb" cx="462" cy="-914.3" rx="166.91" ry="33.47"/>
<text xml:space="preserve" text-anchor="middle" x="462" y="-919.6" font-family="DejaVu Sans" font-size="11.00" fill="#0f172a">Proceso de sesión del display manager</text>
<text xml:space="preserve" text-anchor="middle" x="462" y="-903.85" font-family="DejaVu Sans" font-size="11.00" fill="#0f172a">Ahora ejecuta systemctl &#45;&#45;user start &#45;&#45;wait</text>
</g>
<!-- bind -->
<g id="node2" class="node">
<title>bind</title>
<path fill="#eff6ff" stroke="#2563eb" d="M685.02,-769.58C685.02,-769.58 508.98,-769.58 508.98,-769.58 502.98,-769.58 496.98,-763.58 496.98,-757.58 496.98,-757.58 496.98,-721.24 496.98,-721.24 496.98,-715.24 502.98,-709.24 508.98,-709.24 508.98,-709.24 685.02,-709.24 685.02,-709.24 691.02,-709.24 697.02,-715.24 697.02,-721.24 697.02,-721.24 697.02,-757.58 697.02,-757.58 697.02,-763.58 691.02,-769.58 685.02,-769.58"/>
<text xml:space="preserve" text-anchor="middle" x="597" y="-751.21" font-family="DejaVu Sans" font-size="11.00" fill="#0f172a">uxsm&#45;bindpid@PID.service</text>
<text xml:space="preserve" text-anchor="middle" x="597" y="-722.46" font-family="DejaVu Sans" font-size="11.00" fill="#0f172a">Vigila el PID del proceso de sesión</text>
</g>
<!-- login&#45;&gt;bind -->
<g id="edge12" class="edge">
<title>login&#45;&gt;bind</title>
<path fill="none" stroke="#475569" d="M487.39,-880.78C510.54,-851.14 544.69,-807.4 568.71,-776.64"/>
<polygon fill="#475569" stroke="#475569" points="570.49,-778.62 573.04,-771.09 566.36,-775.39 570.49,-778.62"/>
<text xml:space="preserve" text-anchor="middle" x="555.81" y="-847.28" font-family="DejaVu Sans" font-size="9.00" fill="#334155"> arranca el vigilante </text>
</g>
<!-- desktop -->
<g id="node4" class="node">
<title>desktop</title>
<path fill="#dcfce7" stroke="#15803d" d="M448.27,-785.33C448.27,-785.33 207.73,-785.33 207.73,-785.33 201.73,-785.33 195.73,-779.33 195.73,-773.33 195.73,-773.33 195.73,-705.49 195.73,-705.49 195.73,-699.49 201.73,-693.49 207.73,-693.49 207.73,-693.49 448.27,-693.49 448.27,-693.49 454.27,-693.49 460.27,-699.49 460.27,-705.49 460.27,-705.49 460.27,-773.33 460.27,-773.33 460.27,-779.33 454.27,-785.33 448.27,-785.33"/>
<text xml:space="preserve" text-anchor="middle" x="328" y="-766.96" font-family="DejaVu Sans" font-size="11.00" fill="#14532d">uxsm&#45;desktop@ID.service</text>
<text xml:space="preserve" text-anchor="middle" x="328" y="-738.21" font-family="DejaVu Sans" font-size="11.00" fill="#14532d">Su proceso principal es el escritorio</text>
<text xml:space="preserve" text-anchor="middle" x="328" y="-722.46" font-family="DejaVu Sans" font-size="11.00" fill="#14532d">No cuenta como arrancado hasta que la sesión</text>
<text xml:space="preserve" text-anchor="middle" x="328" y="-706.71" font-family="DejaVu Sans" font-size="11.00" fill="#14532d">está lista: gestor de ventanas o uxsm finalize</text>
</g>
<!-- login&#45;&gt;desktop -->
<g id="edge13" class="edge">
<title>login&#45;&gt;desktop</title>
<path fill="none" stroke="#475569" d="M436.8,-880.78C417.49,-855.88 390.49,-821.03 368.21,-792.29"/>
<polygon fill="#475569" stroke="#475569" points="370.55,-791.02 363.88,-786.7 366.4,-794.24 370.55,-791.02"/>
<text xml:space="preserve" text-anchor="middle" x="452.71" y="-847.28" font-family="DejaVu Sans" font-size="9.00" fill="#334155"> arranca y espera </text>
</g>
<!-- killed -->
<g id="node9" class="node">
<title>killed</title>
<ellipse fill="#fee2e2" stroke="#b91c1c" cx="1287" cy="-539.01" rx="98.49" ry="33.47"/>
<text xml:space="preserve" text-anchor="middle" x="1287" y="-544.31" font-family="DejaVu Sans" font-size="11.00" fill="#7f1d1d">Desaparece el proceso</text>
<text xml:space="preserve" text-anchor="middle" x="1287" y="-528.56" font-family="DejaVu Sans" font-size="11.00" fill="#7f1d1d">del display manager</text>
</g>
<!-- bind&#45;&gt;killed -->
<g id="edge15" class="edge">
<title>bind&#45;&gt;killed</title>
<path fill="none" stroke="#475569" stroke-dasharray="5,2" d="M697.46,-718.04C861.8,-684.72 1170,-622.24 1170,-622.24 1170,-622.24 1211.25,-593.25 1244.76,-569.7"/>
</g>
<!-- env -->
<g id="node3" class="node">
<title>env</title>
<path fill="#ede9fe" stroke="#7c3aed" d="M685.39,-577.06C685.39,-577.06 496.61,-577.06 496.61,-577.06 490.61,-577.06 484.61,-571.06 484.61,-565.06 484.61,-565.06 484.61,-512.97 484.61,-512.97 484.61,-506.97 490.61,-500.97 496.61,-500.97 496.61,-500.97 685.39,-500.97 685.39,-500.97 691.39,-500.97 697.39,-506.97 697.39,-512.97 697.39,-512.97 697.39,-565.06 697.39,-565.06 697.39,-571.06 691.39,-577.06 685.39,-577.06"/>
<text xml:space="preserve" text-anchor="middle" x="591" y="-558.69" font-family="DejaVu Sans" font-size="11.00" fill="#0f172a">uxsm&#45;env@ID.service</text>
<text xml:space="preserve" text-anchor="middle" x="591" y="-529.94" font-family="DejaVu Sans" font-size="11.00" fill="#0f172a">Prepara el entorno antes de arrancar</text>
<text xml:space="preserve" text-anchor="middle" x="591" y="-514.19" font-family="DejaVu Sans" font-size="11.00" fill="#0f172a">y lo restaura cuando se detiene</text>
</g>
<!-- standards -->
<g id="node6" class="node">
<title>standards</title>
<polygon fill="#ede9fe" stroke="#7c3aed" points="537.02,-438.22 534.02,-442.22 513.02,-442.22 510.02,-438.22 366.98,-438.22 366.98,-362.13 537.02,-362.13 537.02,-438.22"/>
<text xml:space="preserve" text-anchor="middle" x="452" y="-419.85" font-family="DejaVu Sans" font-size="11.00" fill="#0f172a">Targets estándar de systemd</text>
<text xml:space="preserve" text-anchor="middle" x="452" y="-391.1" font-family="DejaVu Sans" font-size="11.00" fill="#0f172a">graphical&#45;session&#45;pre.target</text>
<text xml:space="preserve" text-anchor="middle" x="452" y="-375.35" font-family="DejaVu Sans" font-size="11.00" fill="#0f172a">graphical&#45;session.target</text>
</g>
<!-- env&#45;&gt;standards -->
<g id="edge5" class="edge">
<title>env&#45;&gt;standards</title>
<path fill="none" stroke="#475569" d="M554,-500.62C535.5,-481.92 517,-463.22 517,-463.22 517,-463.22 508.46,-455.06 497.56,-444.67"/>
<polygon fill="#475569" stroke="#475569" points="499.64,-443.02 492.41,-439.74 496.02,-446.82 499.64,-443.02"/>
<text xml:space="preserve" text-anchor="middle" x="573.28" y="-467.42" font-family="DejaVu Sans" font-size="9.00" fill="#334155"> activa la fase previa </text>
</g>
<!-- desktop&#45;&gt;env -->
<g id="edge1" class="edge">
<title>desktop&#45;&gt;env</title>
<path fill="none" stroke="#475569" d="M380.71,-693.16C415.23,-663.52 454,-630.24 454,-630.24 454,-630.24 491.31,-605.67 526.99,-582.17"/>
<polygon fill="#475569" stroke="#475569" points="528.01,-584.64 532.83,-578.33 525.12,-580.26 528.01,-584.64"/>
<text xml:space="preserve" text-anchor="middle" x="494.5" y="-653.56" font-family="DejaVu Sans" font-size="9.00" fill="#334155"> Requires + After</text>
<text xml:space="preserve" text-anchor="middle" x="494.5" y="-640.81" font-family="DejaVu Sans" font-size="9.00" fill="#334155">primero el entorno </text>
</g>
<!-- session -->
<g id="node5" class="node">
<title>session</title>
<polygon fill="#eff6ff" stroke="#2563eb" points="447.39,-577.06 444.39,-581.06 423.39,-581.06 420.39,-577.06 270.61,-577.06 270.61,-500.97 447.39,-500.97 447.39,-577.06"/>
<text xml:space="preserve" text-anchor="middle" x="359" y="-558.69" font-family="DejaVu Sans" font-size="11.00" fill="#0f172a">uxsm&#45;session@ID.target</text>
<text xml:space="preserve" text-anchor="middle" x="359" y="-529.94" font-family="DejaVu Sans" font-size="11.00" fill="#0f172a">Agrupa todo lo que pertenece</text>
<text xml:space="preserve" text-anchor="middle" x="359" y="-514.19" font-family="DejaVu Sans" font-size="11.00" fill="#0f172a">a esta sesión de uxsm</text>
</g>
<!-- desktop&#45;&gt;session -->
<g id="edge2" class="edge">
<title>desktop&#45;&gt;session</title>
<path fill="none" stroke="#475569" d="M335.03,-693.39C340.03,-661.41 346.72,-618.6 351.76,-586.33"/>
<polygon fill="#475569" stroke="#475569" points="354.34,-586.84 352.9,-579.03 349.15,-586.03 354.34,-586.84"/>
<text xml:space="preserve" text-anchor="middle" x="369.55" y="-653.56" font-family="DejaVu Sans" font-size="9.00" fill="#334155"> BindsTo</text>
<text xml:space="preserve" text-anchor="middle" x="369.55" y="-640.81" font-family="DejaVu Sans" font-size="9.00" fill="#334155">misma vida </text>
</g>
<!-- autostart -->
<g id="node7" class="node">
<title>autostart</title>
<polygon fill="#fef3c7" stroke="#ca8a04" points="234.02,-577.06 231.02,-581.06 210.02,-581.06 207.02,-577.06 15.98,-577.06 15.98,-500.97 234.02,-500.97 234.02,-577.06"/>
<text xml:space="preserve" text-anchor="middle" x="125" y="-558.69" font-family="DejaVu Sans" font-size="11.00" fill="#0f172a">uxsm&#45;autostart@ID.target</text>
<text xml:space="preserve" text-anchor="middle" x="125" y="-529.94" font-family="DejaVu Sans" font-size="11.00" fill="#0f172a">Arrastra xdg&#45;desktop&#45;autostart.target,</text>
<text xml:space="preserve" text-anchor="middle" x="125" y="-514.19" font-family="DejaVu Sans" font-size="11.00" fill="#0f172a">que no se puede arrancar a mano</text>
</g>
<!-- desktop&#45;&gt;autostart -->
<g id="edge4" class="edge">
<title>desktop&#45;&gt;autostart</title>
<path fill="none" stroke="#475569" d="M280.62,-693.34C266.4,-679.81 254.5,-668.49 254.5,-668.49 254.5,-668.49 206.72,-621.08 169.2,-583.87"/>
<polygon fill="#475569" stroke="#475569" points="171.05,-582 163.88,-578.59 167.35,-585.73 171.05,-582"/>
<text xml:space="preserve" text-anchor="middle" x="292.75" y="-659.94" font-family="DejaVu Sans" font-size="9.00" fill="#334155"> ExecStartPost</text>
<text xml:space="preserve" text-anchor="middle" x="292.75" y="-647.19" font-family="DejaVu Sans" font-size="9.00" fill="#334155">sólo si el autostart</text>
<text xml:space="preserve" text-anchor="middle" x="292.75" y="-634.44" font-family="DejaVu Sans" font-size="9.00" fill="#334155">le toca a uxsm </text>
</g>
<!-- quit -->
<g id="node8" class="node">
<title>quit</title>
<ellipse fill="#fee2e2" stroke="#b91c1c" cx="1042" cy="-539.01" rx="109.63" ry="33.47"/>
<text xml:space="preserve" text-anchor="middle" x="1042" y="-544.31" font-family="DejaVu Sans" font-size="11.00" fill="#7f1d1d">El escritorio termina, falla</text>
<text xml:space="preserve" text-anchor="middle" x="1042" y="-528.56" font-family="DejaVu Sans" font-size="11.00" fill="#7f1d1d">o nunca llega a estar listo</text>
</g>
<!-- desktop&#45;&gt;quit -->
<g id="edge14" class="edge">
<title>desktop&#45;&gt;quit</title>
<path fill="none" stroke="#475569" stroke-dasharray="5,2" d="M460.5,-698.73C471.2,-695.52 478,-693.49 478,-693.49 478,-693.49 914,-622.24 914,-622.24 914,-622.24 959.12,-593.25 995.79,-569.7"/>
</g>
<!-- session&#45;&gt;standards -->
<g id="edge3" class="edge">
<title>session&#45;&gt;standards</title>
<path fill="none" stroke="#475569" d="M384.41,-500.62C395.89,-483.73 409.55,-463.63 421.58,-445.94"/>
<polygon fill="#475569" stroke="#475569" points="423.72,-447.45 425.77,-439.77 419.38,-444.5 423.72,-447.45"/>
<text xml:space="preserve" text-anchor="middle" x="458.16" y="-467.42" font-family="DejaVu Sans" font-size="9.00" fill="#334155"> activa la sesión gráfica </text>
</g>
<!-- shutdown -->
<g id="node11" class="node">
<title>shutdown</title>
<path fill="#fecaca" stroke="#b91c1c" d="M1149.76,-395.17C1149.76,-395.17 1149.76,-405.18 1149.76,-405.18 1149.76,-410.18 1145.01,-416.78 1140.27,-418.37 1140.27,-418.37 1096.12,-433.22 1096.12,-433.22 1091.38,-434.81 1081.63,-436.41 1076.63,-436.41 1076.63,-436.41 1007.37,-436.41 1007.37,-436.41 1002.37,-436.41 992.62,-434.81 987.88,-433.22 987.88,-433.22 943.73,-418.37 943.73,-418.37 938.99,-416.78 934.24,-410.18 934.24,-405.18 934.24,-405.18 934.24,-395.17 934.24,-395.17 934.24,-390.17 938.99,-383.57 943.73,-381.98 943.73,-381.98 987.88,-367.13 987.88,-367.13 992.62,-365.54 1002.37,-363.94 1007.37,-363.94 1007.37,-363.94 1076.63,-363.94 1076.63,-363.94 1081.63,-363.94 1091.38,-365.54 1096.12,-367.13 1096.12,-367.13 1140.27,-381.98 1140.27,-381.98 1145.01,-383.57 1149.76,-390.17 1149.76,-395.17"/>
<text xml:space="preserve" text-anchor="middle" x="1042" y="-405.47" font-family="DejaVu Sans" font-size="11.00" fill="#7f1d1d">uxsm&#45;shutdown.target</text>
<text xml:space="preserve" text-anchor="middle" x="1042" y="-389.72" font-family="DejaVu Sans" font-size="11.00" fill="#7f1d1d">Punto único de cierre</text>
</g>
<!-- quit&#45;&gt;shutdown -->
<g id="edge6" class="edge">
<title>quit&#45;&gt;shutdown</title>
<path fill="none" stroke="#b91c1c" d="M1042,-505.24C1042,-487.35 1042,-464.96 1042,-445.54"/>
<polygon fill="#b91c1c" stroke="#b91c1c" points="1044.63,-445.57 1042,-438.07 1039.38,-445.57 1044.63,-445.57"/>
<text xml:space="preserve" text-anchor="middle" x="1091.12" y="-467.42" font-family="DejaVu Sans" font-size="9.00" fill="#334155"> OnSuccess / OnFailure </text>
</g>
<!-- killed&#45;&gt;shutdown -->
<g id="edge7" class="edge">
<title>killed&#45;&gt;shutdown</title>
<path fill="none" stroke="#b91c1c" d="M1236.53,-509.83C1198.76,-488.73 1146.83,-459.72 1106.12,-436.99"/>
<polygon fill="#b91c1c" stroke="#b91c1c" points="1107.54,-434.77 1099.71,-433.41 1104.98,-439.36 1107.54,-434.77"/>
<text xml:space="preserve" text-anchor="middle" x="1220.97" y="-467.42" font-family="DejaVu Sans" font-size="9.00" fill="#334155"> OnSuccess / OnFailure </text>
</g>
<!-- stop -->
<g id="node10" class="node">
<title>stop</title>
<ellipse fill="#fee2e2" stroke="#b91c1c" cx="815" cy="-539.01" rx="80.46" ry="33.47"/>
<text xml:space="preserve" text-anchor="middle" x="815" y="-544.31" font-family="DejaVu Sans" font-size="11.00" fill="#7f1d1d">El usuario ejecuta</text>
<text xml:space="preserve" text-anchor="middle" x="815" y="-528.56" font-family="DejaVu Sans" font-size="11.00" fill="#7f1d1d">uxsm stop</text>
</g>
<!-- stop&#45;&gt;shutdown -->
<g id="edge8" class="edge">
<title>stop&#45;&gt;shutdown</title>
<path fill="none" stroke="#b91c1c" d="M860.12,-510.82C894.67,-489.99 942.69,-461.04 980.71,-438.12"/>
<polygon fill="#b91c1c" stroke="#b91c1c" points="981.81,-440.52 986.88,-434.4 979.1,-436.02 981.81,-440.52"/>
</g>
<!-- stopunits -->
<g id="node12" class="node">
<title>stopunits</title>
<path fill="#eff6ff" stroke="#2563eb" d="M1134.14,-311.13C1134.14,-311.13 949.86,-311.13 949.86,-311.13 943.86,-311.13 937.86,-305.13 937.86,-299.13 937.86,-299.13 937.86,-260.04 937.86,-260.04 937.86,-254.04 943.86,-248.04 949.86,-248.04 949.86,-248.04 1134.14,-248.04 1134.14,-248.04 1140.14,-248.04 1146.14,-254.04 1146.14,-260.04 1146.14,-260.04 1146.14,-299.13 1146.14,-299.13 1146.14,-305.13 1140.14,-311.13 1134.14,-311.13"/>
<text xml:space="preserve" text-anchor="middle" x="1042" y="-292.76" font-family="DejaVu Sans" font-size="11.00" fill="#0f172a">Por Conflicts=, systemd detiene</text>
<text xml:space="preserve" text-anchor="middle" x="1042" y="-277.01" font-family="DejaVu Sans" font-size="11.00" fill="#0f172a">el escritorio, el entorno y los targets</text>
<text xml:space="preserve" text-anchor="middle" x="1042" y="-261.26" font-family="DejaVu Sans" font-size="11.00" fill="#0f172a">de la sesión gráfica</text>
</g>
<!-- shutdown&#45;&gt;stopunits -->
<g id="edge9" class="edge">
<title>shutdown&#45;&gt;stopunits</title>
<path fill="none" stroke="#475569" d="M1042,-363.59C1042,-349.94 1042,-334.27 1042,-320.26"/>
<polygon fill="#475569" stroke="#475569" points="1044.63,-320.33 1042,-312.83 1039.38,-320.33 1044.63,-320.33"/>
</g>
<!-- cleanup -->
<g id="node13" class="node">
<title>cleanup</title>
<path fill="#fef3c7" stroke="#ca8a04" d="M1133.77,-197.04C1133.77,-197.04 950.23,-197.04 950.23,-197.04 944.23,-197.04 938.23,-191.04 938.23,-185.04 938.23,-185.04 938.23,-145.95 938.23,-145.95 938.23,-139.95 944.23,-133.95 950.23,-133.95 950.23,-133.95 1133.77,-133.95 1133.77,-133.95 1139.77,-133.95 1145.77,-139.95 1145.77,-145.95 1145.77,-145.95 1145.77,-185.04 1145.77,-185.04 1145.77,-191.04 1139.77,-197.04 1133.77,-197.04"/>
<text xml:space="preserve" text-anchor="middle" x="1042" y="-178.67" font-family="DejaVu Sans" font-size="11.00" fill="#0f172a">Al parar uxsm&#45;env@, ExecStopPost=</text>
<text xml:space="preserve" text-anchor="middle" x="1042" y="-162.92" font-family="DejaVu Sans" font-size="11.00" fill="#0f172a">restaura el entorno anterior y borra</text>
<text xml:space="preserve" text-anchor="middle" x="1042" y="-147.17" font-family="DejaVu Sans" font-size="11.00" fill="#0f172a">los ficheros temporales de la sesión</text>
</g>
<!-- stopunits&#45;&gt;cleanup -->
<g id="edge10" class="edge">
<title>stopunits&#45;&gt;cleanup</title>
<path fill="none" stroke="#475569" d="M1042,-247.66C1042,-234.79 1042,-219.7 1042,-206.05"/>
<polygon fill="#475569" stroke="#475569" points="1044.63,-206.33 1042,-198.83 1039.38,-206.33 1044.63,-206.33"/>
</g>
<!-- down -->
<g id="node14" class="node">
<title>down</title>
<ellipse fill="#e2e8f0" stroke="#64748b" cx="1042" cy="-49.47" rx="146.75" ry="33.47"/>
<text xml:space="preserve" text-anchor="middle" x="1042" y="-54.77" font-family="DejaVu Sans" font-size="11.00" fill="#0f172a">No queda ningún proceso ni estado</text>
<text xml:space="preserve" text-anchor="middle" x="1042" y="-39.02" font-family="DejaVu Sans" font-size="11.00" fill="#0f172a">perteneciente a la sesión</text>
</g>
<!-- cleanup&#45;&gt;down -->
<g id="edge11" class="edge">
<title>cleanup&#45;&gt;down</title>
<path fill="none" stroke="#475569" d="M1042,-133.64C1042,-120.87 1042,-105.87 1042,-92.15"/>
<polygon fill="#475569" stroke="#475569" points="1044.63,-92.36 1042,-84.86 1039.38,-92.36 1044.63,-92.36"/>
</g>
</g>
</svg>
